{
  "accessors": [
    {
      "bufferView": 3,
      "componentType": 5126,
      "count": 490,
      "max": [
        310.12548828125,
        619.3644409179688,
        98.70204162597656
      ],
      "min": [
        -310.9128112792969,
        -1.543217658996582,
        -97.94432830810547
      ],
      "type": "VEC3"
    },
    {
      "bufferView": 3,
      "byteOffset": 5880,
      "componentType": 5126,
      "count": 490,
      "max": [
        0.9998917579650879,
        0.9999511241912842,
        0.9999468922615051
      ],
      "min": [
        -0.9998917579650879,
        -1.0,
        -0.9999011754989624
      ],
      "type": "VEC3"
    },
    {
      "bufferView": 2,
      "componentType": 5126,
      "count": 490,
      "max": [
        0.9795036315917969,
        0.9931978583335876
      ],
      "min": [
        0.006802120245993137,
        0.02176487445831299
      ],
      "type": "VEC2"
    },
    {
      "bufferView": 1,
      "componentType": 5125,
      "count": 1992,
      "type": "SCALAR"
    },
    {
      "bufferView": 5,
      "componentType": 5126,
      "count": 24,
      "max": [
        1.0,
        0.48017194867134094,
        0.07591427862644196,
        0.0,
        0.502898097038269,
        1.0,
        0.003060805844143033,
        0.0,
        0.0,
        0.1435592621564865,
        1.0,
        0.0,
        303.2469482421875,
        0.0,
        21.148534774780273,
        1.0
      ],
      "min": [
        0.8643457293510437,
        -0.502898097038269,
        0.0,
        0.0,
        -0.48017194867134094,
        0.8643457293510437,
        -0.1435592621564865,
        0.0,
        -0.07596470415592194,
        -3.4998046127832083e-16,
        0.9896417260169983,
        0.0,
        -303.2469482421875,
        -441.0867919921875,
        -65.2580795288086,
        1.0
      ],
      "type": "MAT4"
    },
    {
      "bufferView": 0,
      "componentType": 5123,
      "count": 490,
      "type": "VEC4"
    },
    {
      "bufferView": 4,
      "componentType": 5126,
      "count": 490,
      "max": [
        1.0,
        0.47318845987319946,
        0.26804348826408386,
        0.04758172854781151
      ],
      "min": [
        0.3895930349826813,
        0.0,
        0.0,
        0.0
      ],
      "type": "VEC4"
    }
  ],
  "asset": {
    "extras": {
      "author": "studentsimf (https://sketchfab.com/studentsimf)",
      "license": "CC-BY-4.0 (http://creativecommons.org/licenses/by/4.0/)",
      "source": "https://sketchfab.com/3d-models/stickman-low-poly-12b31ea386ee4398a552d15c01615ae9",
      "title": "Stickman Low Poly"
    },
    "generator": "Sketchfab-12.68.0",
    "version": "2.0"
  },
  "bufferViews": [
    {
      "buffer": 0,
      "byteLength": 3920,
      "byteStride": 8,
      "name": "shortBufferViews",
      "target": 34962
    },
    {
      "buffer": 0,
      "byteLength": 7968,
      "byteOffset": 3920,
      "name": "floatBufferViews",
      "target": 34963
    },
    {
      "buffer": 0,
      "byteLength": 3920,
      "byteOffset": 11888,
      "byteStride": 8,
      "name": "floatBufferViews",
      "target": 34962
    },
    {
      "buffer": 0,
      "byteLength": 11760,
      "byteOffset": 15808,
      "byteStride": 12,
      "name": "floatBufferViews",
      "target": 34962
    },
    {
      "buffer": 0,
      "byteLength": 7840,
      "byteOffset": 27568,
      "byteStride": 16,
      "name": "floatBufferViews",
      "target": 34962
    },
    {
      "buffer": 0,
      "byteLength": 1536,
      "byteOffset": 35408,
      "name": "floatBufferViews"
    }
  ],
  "buffers": [
    {
      "byteLength": 36944,
      "uri": "scene.bin"
    }
  ],
  "materials": [
    {
      "doubleSided": true,
      "name": "material",
      "pbrMetallicRoughness": {
        "baseColorFactor": [
          0.591487744632339,
          0.591487744632339,
          0.591487744632339,
          1.0
        ],
        "metallicFactor": 0.0
      }
    }
  ],
  "meshes": [
    {
      "name": "mesh_Mat_0",
      "primitives": [
        {
          "attributes": {
            "JOINTS_0": 5,
            "NORMAL": 1,
            "POSITION": 0,
            "TEXCOORD_0": 2,
            "WEIGHTS_0": 6
          },
          "indices": 3,
          "material": 0,
          "mode": 4
        }
      ]
    }
  ],
  "nodes": [
    {
      "children": [
        1
      ],
      "matrix": [
        1.0,
        0.0,
        0.0,
        0.0,
        0.0,
        2.220446049250313e-16,
        -1.0,
        0.0,
        0.0,
        1.0,
        2.220446049250313e-16,
        0.0,
        0.0,
        0.0,
        0.0,
        1.0
      ],
      "name": "Sketchfab_model"
    },
    {
      "children": [
        2
      ],
      "matrix": [
        1.0,
        0.0,
        0.0,
        0.0,
        0.0,
        0.0,
        1.0,
        0.0,
        0.0,
        -1.0,
        0.0,
        0.0,
        0.0,
        0.0,
        0.0,
        1.0
      ],
      "name": "6bb520f7d5434376bd53792807a0b9e5.fbx"
    },
    {
      "children": [
        3
      ],
      "name": "RootNode"
    },
    {
      "children": [
        4,
        6,
        5
      ],
      "name": "Object_3"
    },
    {
      "children": [
        7
      ],
      "name": "_rootJoint"
    },
    {
      "matrix": [
        1.0,
        0.0,
        0.0,
        0.0,
        0.0,
        1.0,
        0.0,
        0.0,
        0.0,
        0.0,
        1.0,
        0.0,
        -1.509903313490213e-14,
        0.0,
        0.0,
        1.0
      ],
      "name": "Object_5"
    },
    {
      "mesh": 0,
      "name": "Object_6",
      "skin": 0
    },
    {
      "children": [
        8,
        22,
        26
      ],
      "name": "body_00",
      "translation": [
        1.8271384239196777,
        236.96322631835938,
        -5.155410289764404
      ]
    },
    {
      "children": [
        9
      ],
      "name": "body2_01",
      "translation": [
        0.0,
        68.67708587646484,
        0.25357532501220703
      ]
    },
    {
      "children": [
        10,
        15,
        20
      ],
      "name": "body3_02",
      "translation": [
        -0.9538483619689941,
        62.000144958496094,
        0.0
      ]
    },
    {
      "children": [
        11
      ],
      "name": "shoulder_l_03",
      "rotation": [
        0.0,
        0.0,
        0.26043644547462463,
        0.965490996837616
      ],
      "translation": [
        -31.315879821777344,
        35.292388916015625,
        0.0
      ]
    },
    {
      "children": [
        12
      ],
      "name": "hand_l_1_04",
      "rotation": [
        0.0,
        -0.0,
        -0.28068941831588745,
        0.9597987532615662
      ],
      "translation": [
        -26.502553939819336,
        -0.029841316863894463,
        0.0
      ]
    },
    {
      "children": [
        13
      ],
      "name": "hand_l_2_05",
      "rotation": [
        -0.0013491233112290502,
        0.027715487405657768,
        0.04860130697488785,
        0.9984327554702759
      ],
      "translation": [
        -84.02485656738281,
        0.28124678134918213,
        -3.387075662612915
      ]
    },
    {
      "children": [
        14
      ],
      "name": "hand_l_3_06",
      "rotation": [
        0.0006166475359350443,
        0.010266480967402458,
        -0.009362174198031425,
        0.9999033808708191
      ],
      "translation": [
        -86.05120849609375,
        1.4169468879699707,
        0.35459378361701965
      ]
    },
    {
      "name": "hand_l_4_07",
      "rotation": [
        0.0006924456683918834,
        -0.03800351172685623,
        -0.018204381689429283,
        0.999111533164978
      ],
      "translation": [
        -80.4518051147461,
        -0.29314854741096497,
        0.37444910407066345
      ]
    },
    {
      "children": [
        16
      ],
      "name": "shoulder_r_08",
      "rotation": [
        0.0,
        -0.0,
        -0.2478160858154297,
        0.9688071012496948
      ],
      "translation": [
        29.569299697875977,
        35.292388916015625,
        0.0
      ]
    },
    {
      "children": [
        17
      ],
      "name": "hand_r_1_09",
      "rotation": [
        0.0,
        0.0,
        0.2751317322254181,
        0.9614065289497375
      ],
      "translation": [
        26.49275016784668,
        -0.7214093208312988,
        0.0
      ]
    },
    {
      "children": [
        18
      ],
      "name": "hand_r_2_010",
      "rotation": [
        0.0,
        -0.0,
        -0.04900246113538742,
        0.998798668384552
      ],
      "translation": [
        84.02007293701172,
        -0.9393378496170044,
        -3.387075662612915
      ]
    },
    {
      "children": [
        19
      ],
      "name": "hand_r_3_011",
      "rotation": [
        0.0,
        0.0,
        0.020719245076179504,
        0.9997854232788086
      ],
      "translation": [
        85.91038513183594,
        0.2348063886165619,
        5.127758979797363
      ]
    },
    {
      "name": "hand_r_4_012",
      "rotation": [
        0.0,
        0.0,
        1.9721522630525295e-31,
        1.0
      ],
      "translation": [
        80.12699127197266,
        -3.2142317295074463,
        6.484864711761475
      ]
    },
    {
      "children": [
        21
      ],
      "name": "neck_013",
      "translation": [
        -0.0037259701639413834,
        39.111507415771484,
        0.0
      ]
    },
    {
      "name": "head_014",
      "translation": [
        -0.9501224160194397,
        34.334815979003906,
        0.0
      ]
    },
    {
      "children": [
        23
      ],
      "name": "foot_r_1_015",
      "translation": [
        41.57099914550781,
        -13.70849609375,
        1.6049740314483643
      ]
    },
    {
      "children": [
        24
      ],
      "name": "foot_r_2_016",
      "rotation": [
        0.07196623831987381,
        0.0,
        0.0,
        0.997407078742981
      ],
      "translation": [
        0.36504775285720825,
        -98.7978286743164,
        0.23449622094631195
      ]
    },
    {
      "children": [
        25
      ],
      "name": "foot_r_3_017",
      "rotation": [
        -0.032764557749032974,
        -0.0,
        0.0,
        0.9994630813598633
      ],
      "translation": [
        1.4210854715202004e-14,
        -104.98197937011719,
        -0.4120894968509674
      ]
    },
    {
      "name": "foot_r_4_018",
      "rotation": [
        -0.03924799710512161,
        -0.0,
        0.0,
        0.9992294907569885
      ],
      "translation": [
        0.0,
        2.3438057899475098,
        84.12832641601563
      ]
    },
    {
      "children": [
        27
      ],
      "name": "foot_l_1_019",
      "translation": [
        -45.22527313232422,
        -13.70849609375,
        1.6049740314483643
      ]
    },
    {
      "children": [
        28
      ],
      "name": "foot_l_2_020",
      "rotation": [
        0.07196623831987381,
        0.0,
        0.0,
        0.997407078742981
      ],
      "translation": [
        -0.36504775285720825,
        -98.7978286743164,
        0.23449622094631195
      ]
    },
    {
      "children": [
        29
      ],
      "name": "foot_l_3_021",
      "rotation": [
        -0.032764557749032974,
        -0.0,
        0.0,
        0.9994630813598633
      ],
      "translation": [
        -2.1316282072803006e-14,
        -104.98197937011719,
        -0.4120894968509674
      ]
    },
    {
      "name": "foot_l_4_022",
      "rotation": [
        -0.03924799710512161,
        -0.0,
        0.0,
        0.9992294907569885
      ],
      "translation": [
        1.4210854715202004e-14,
        2.3438057899475098,
        84.12832641601563
      ]
    }
  ],
  "scene": 0,
  "scenes": [
    {
      "name": "Sketchfab_Scene",
      "nodes": [
        0
      ]
    }
  ],
  "skins": [
    {
      "inverseBindMatrices": 4,
      "joints": [
        4,
        7,
        8,
        9,
        10,
        11,
        12,
        13,
        14,
        15,
        16,
        17,
        18,
        19,
        20,
        21,
        22,
        23,
        24,
        25,
        26,
        27,
        28,
        29
      ],
      "skeleton": 4
    }
  ]
}
